<!-- sample rectangle -->
<svg xmlns="http://www.w3.org/2000/svg" id="Ebene_1" data-name="Ebene 1" version="1.1" viewBox="207.54000000000002 138.98 584.9300000000001 722.04">
  
  
  
  <path d="M723.98,222.19c2.79,1.06,5.81,1.64,8.96,1.64,13.99,0,25.32-11.34,25.32-25.32,0-2.13-.26-4.2-.77-6.18l-33.51,29.86Z" stroke-width="0px" fill="#e61a55"/>
  <path d="M736.57,173.45l-28.95,25.57c.21,10.61,6.94,19.61,16.34,23.17h.01l33.51-29.86c-2.46-9.85-10.7-17.41-20.91-18.88Z" stroke-width="0px" fill="#e94b30"/>
  <path d="M792.46,198.51c0-32.88-26.65-59.53-59.53-59.53-29.29,0-53.64,21.15-58.6,49.02-.61,3.41-.93,6.92-.93,10.51,0,27.14,18.16,50.04,42.99,57.2h.01c5.25,1.52,10.79,2.33,16.53,2.33,9.06,0,17.64-2.02,25.32-5.64v365.68c0,16.48-13.35,29.83-29.83,29.83h-457.23c-17.02,0-30.81-13.79-30.81-30.8V244.3c0-21.93,17.77-39.71,39.7-39.71h359.15c8.91,0,16.13-7.22,16.13-16.12,0-.16,0-.32,0-.47-.25-8.69-7.37-15.66-16.12-15.66h-369.57c-6.13.96-30.23,5.49-47.32,27.23-10.76,13.69-13.8,27.9-14.81,35.07v378.64c0,37.93,30.75,68.68,68.68,68.68h142.21c-3.52,13.27-7.03,26.55-10.55,39.83-10.94-.85-19.8,7.32-20.09,16.34-.22,7.06,4.85,14.05,12.6,16.68h200.17c7.47-3,12.39-9.68,12.25-16.34-.18-9.15-9.89-18.01-22.12-16.68l-9.54-39.83h148.09c4.95-.2,26.3-1.62,43.91-19.07,16.63-16.47,18.89-36.3,19.32-41.53V204.59h-.31c.21-2,.31-4.03.31-6.08ZM732.93,223.83c-3.15,0-6.17-.58-8.96-1.64h-.01c-9.4-3.56-16.13-12.56-16.34-23.17-.01-.17-.01-.34-.01-.51,0-13.98,11.34-25.32,25.32-25.32,1.24,0,2.45.09,3.64.26,10.21,1.47,18.45,9.03,20.91,18.88.51,1.98.77,4.05.77,6.18,0,13.98-11.33,25.32-25.32,25.32Z" fill="#11283e" stroke-width="0px"/>
  <path d="M574.17,519.91c-26.23,0-47.49,21.27-47.49,47.49,0,16.88,8.8,31.7,22.07,40.12l.76-.78,2.9,2.88c6.51,3.37,13.91,5.27,21.76,5.27,26.22,0,47.49-21.26,47.49-47.49,0-5.09-.8-9.99-2.29-14.58-.7-2.19-1.56-4.31-2.56-6.34-7.74-15.74-23.93-26.57-42.64-26.57ZM574.17,585.96c-10.25,0-18.56-8.31-18.56-18.56s8.31-18.55,18.56-18.55,18.55,8.31,18.55,18.55-8.31,18.56-18.55,18.56Z" fill="#11283e" stroke-width="0px"/>
  <path d="M574.17,548.85c-10.25,0-18.56,8.31-18.56,18.55s8.31,18.56,18.56,18.56,18.55-8.31,18.55-18.56-8.31-18.55-18.55-18.55Z" stroke-width="0px" fill="#ffffff"/>
  <path d="M379.68,554.5h0c-1.15,4.11-1.77,8.43-1.77,12.9,0,18.73,10.84,34.92,26.58,42.65,6.31,3.1,13.41,4.84,20.91,4.84,26.23,0,47.49-21.26,47.49-47.49s-21.26-47.49-47.49-47.49c-8.04,0-15.62,2-22.26,5.53h-.01c-11.32,6.03-19.9,16.48-23.45,29.06ZM425.4,548.85c10.25,0,18.55,8.31,18.55,18.55s-8.3,18.56-18.55,18.56-18.55-8.31-18.55-18.56,8.3-18.55,18.55-18.55Z" fill="#11283e" stroke-width="0px"/>
  <path d="M425.4,585.96c10.25,0,18.55-8.31,18.55-18.56s-8.3-18.55-18.55-18.55-18.55,8.31-18.55,18.55,8.3,18.56,18.55,18.56Z" stroke-width="0px" fill="#ffffff"/>
  <path d="M758.25,252.4c-7.68,3.62-16.26,5.64-25.32,5.64-5.74,0-11.28-.81-16.53-2.33l41.85,37.78v-41.09Z" stroke-width="0px" fill="#3377bc"/>
  <path d="M732.93,173.19c-13.98,0-25.32,11.34-25.32,25.32,0,.17,0,.34.01.51l28.95-25.57c-1.19-.17-2.4-.26-3.64-.26Z" stroke-width="0px" fill="#ee771b"/>
  <path d="M368.38,289.79l-3.77-21.32c-.76-4.29-2.81-8.08-5.7-11l-1.29-1.19c-3.65-3.11-8.37-4.96-13.47-4.96h-45.73c-4.75,0-9.04,1.92-12.15,5.03-3.12,3.11-5.04,7.41-5.04,12.16,0,9.49,7.7,17.19,17.19,17.19h35.24l10.67,55.67.33.36-.22.22,28.85,150.6c1.67,8.71,7.68,15.66,15.53,18.77h.01c2.9,1.16,6.04,1.79,9.32,1.79h204.16c10.54,0,19.71-7.25,22.14-17.5l35.73-150.26,6.84-28.75c1.67-7.01-.24-13.89-4.41-18.91h0c-1.07-1.3-2.28-2.47-3.63-3.49,0-.01-.01-.01-.02-.02-3.61-2.74-8.13-4.39-13.11-4.39h-277.46ZM629.48,320.76l-18.75,86.46-12.22,56.35h-197.45l-10.8-58.86-15.41-83.95h254.63Z" fill="#11283e" stroke-width="0px"/>
  <path d="M390.26,404.71l16.29,29.15c2.93,5.22,8.4,8.5,14.39,8.6l145.7,2.42c5.23.09,10.26-2.02,13.85-5.81l30.24-31.85,18.75-86.46h-254.63l15.41,83.95ZM568.21,352.76c1.67-5.57,6.87-9.34,12.59-9.19,5.48.15,10.32,3.86,11.92,9.19-4.43,26.67-8.85,53.34-13.28,80-3.15,6.43-10.31,9.1-15.66,6.81-3.9-1.66-6.53-5.82-6.81-10.55,3.75-25.42,7.49-50.84,11.24-76.26ZM514.42,355.66c0-5.74,4.65-10.38,10.38-10.38h1.71c5.73,0,10.38,4.64,10.38,10.38v74.33c0,5.74-4.65,10.39-10.38,10.39h-1.71c-5.73,0-10.38-4.65-10.38-10.39v-74.33ZM463.36,355.66c0-5.74,4.65-10.38,10.38-10.38h1.7c5.74,0,10.39,4.64,10.39,10.38v74.33c0,5.74-4.65,10.39-10.39,10.39h-1.7c-5.73,0-10.38-4.65-10.38-10.39v-74.33ZM419.44,343.57c5.72-.15,10.92,3.62,12.6,9.19,3.74,25.42,7.49,50.84,11.23,76.26-.27,4.73-2.91,8.89-6.81,10.55-5.35,2.29-12.5-.38-15.66-6.81-4.42-26.66-8.85-53.33-13.27-80,1.6-5.33,6.43-9.04,11.91-9.19Z" stroke-width="0px" fill="#ffffff"/>
  <path d="M436.46,439.57c3.9-1.66,6.54-5.82,6.81-10.55-3.74-25.42-7.49-50.84-11.23-76.26-1.68-5.57-6.88-9.34-12.6-9.19-5.48.15-10.31,3.86-11.91,9.19,4.42,26.67,8.85,53.34,13.27,80,3.16,6.43,10.31,9.1,15.66,6.81Z" fill="#11283e" stroke-width="0px"/>
  <path d="M473.74,440.38h1.7c5.74,0,10.39-4.65,10.39-10.39v-74.33c0-5.74-4.65-10.38-10.39-10.38h-1.7c-5.73,0-10.38,4.64-10.38,10.38v74.33c0,5.74,4.65,10.39,10.38,10.39Z" fill="#11283e" stroke-width="0px"/>
  <path d="M524.8,440.38h1.71c5.73,0,10.38-4.65,10.38-10.39v-74.33c0-5.74-4.65-10.38-10.38-10.38h-1.71c-5.73,0-10.38,4.64-10.38,10.38v74.33c0,5.74,4.65,10.39,10.38,10.39Z" fill="#11283e" stroke-width="0px"/>
  <path d="M563.79,439.57c5.35,2.29,12.51-.38,15.66-6.81,4.43-26.66,8.85-53.33,13.28-80-1.6-5.33-6.44-9.04-11.92-9.19-5.72-.15-10.92,3.62-12.59,9.19-3.75,25.42-7.49,50.84-11.24,76.26.28,4.73,2.91,8.89,6.81,10.55Z" fill="#11283e" stroke-width="0px"/>
  <path d="M566.64,444.88l-145.7-2.42c-5.99-.1-11.46-3.38-14.39-8.6l-16.29-29.15,10.8,58.86h197.45l12.22-56.35-30.24,31.85c-3.59,3.79-8.62,5.9-13.85,5.81Z" stroke-width="0px" fill="#d3ecf8"/>
  <path d="M639.23,204.59h-139.23v85.2h145.84c4.98,0,9.5,1.65,13.11,4.39.01.01.02.01.02.02,1.35,1.02,2.56,2.19,3.63,3.48h0s95.64,91.7,95.64,91.7v-95.89l-41.85-37.78h-.01c-24.83-7.16-42.99-30.06-42.99-57.2,0-3.59.32-7.1.93-10.51h-18.98c0,.15,0,.31,0,.47,0,8.9-7.22,16.12-16.13,16.12Z" stroke-width="0px" fill="#5ebeb2"/>
  <path d="M368.38,289.79h25.47l-34.94-32.32c2.89,2.92,4.94,6.71,5.7,11l3.77,21.32Z" stroke-width="0px" fill="#e51743"/>
  <path d="M377.92,567.4c0-4.47.62-8.79,1.77-12.89l-94.95,93.4h155.66l-35.9-37.86c-15.74-7.73-26.58-23.92-26.58-42.65Z" stroke-width="0px" fill="#ec681c"/>
  <path d="M717.58,647.91h10.84c16.48,0,29.83-13.35,29.83-29.83v-109.54l-90.61,91.01,49.94,48.36Z" stroke-width="0px" fill="#44c0ec"/>
  <polygon points="619.5 647.91 717.58 647.91 667.64 599.55 619.5 647.91" stroke-width="0px" fill="#34aee5"/>
  <path d="M619.37,552.82c1.49,4.59,2.29,9.49,2.29,14.58,0,26.23-21.27,47.49-47.49,47.49-7.85,0-15.25-1.9-21.76-5.27l38.57,38.29h28.52l48.14-48.36-48.27-46.73Z" stroke-width="0px" fill="#3377bc"/>
  <path d="M548.75,607.52l-39.97,40.39h82.2l-38.57-38.29c-1.26-.65-2.48-1.35-3.66-2.1Z" stroke-width="0px" fill="#44c0ec"/>
  <path d="M616.81,546.48c1,2.03,1.86,4.15,2.56,6.34l48.27,46.73,90.61-91.01v-67.41l-18.63-18.2-122.81,123.55Z" stroke-width="0px" fill="#34aee5"/>
  <path d="M667.02,316.6l-6.84,28.75,79.44,77.58,18.63,18.2v-51.75l-95.64-91.69c4.17,5.02,6.08,11.9,4.41,18.91Z" stroke-width="0px" fill="#3bbacc"/>
  <path d="M526.68,567.4c0-26.22,21.26-47.49,47.49-47.49,18.71,0,34.9,10.83,42.64,26.57l122.81-123.55-79.44-77.58-35.73,150.26c-2.43,10.25-11.6,17.5-22.14,17.5h-102.31v134.8h8.78l39.97-40.39c-13.27-8.42-22.07-23.24-22.07-40.12Z" stroke-width="0px" fill="#3377bc"/>
  <path d="M398.15,513.11c-3.28,0-6.42-.63-9.32-1.79l14.3,14.12h.01c6.64-3.53,14.22-5.53,22.26-5.53,26.23,0,47.49,21.27,47.49,47.49s-21.26,47.49-47.49,47.49c-7.5,0-14.6-1.74-20.91-4.84l35.9,37.86h59.61v-134.8h-101.85Z" stroke-width="0px" fill="#e7401f"/>
  <path d="M379.68,554.5c3.55-12.58,12.13-23.03,23.45-29.06l-14.3-14.12h-.01c-7.85-3.11-13.86-10.06-15.53-18.77l-28.85-150.6-104.06,103.49v171.67c0,17.01,13.79,30.8,30.81,30.8h13.54l94.95-93.4h0Z" stroke-width="0px" fill="#ee771b"/>
  <path d="M344.33,341.37l-10.67-55.67h-35.24c-9.49,0-17.19-7.7-17.19-17.19,0-4.75,1.92-9.05,5.04-12.16,3.11-3.11,7.4-5.03,12.15-5.03h45.73c5.1,0,9.82,1.85,13.47,4.96l1.29,1.19,34.94,32.32h106.15v-85.2h-219.92c-21.93,0-39.7,17.78-39.7,39.71v201.14l104.06-103.49-.11-.58Z" stroke-width="0px" fill="#eb621c"/>
  <ellipse cx="499.45" cy="844.93" rx="273.36" ry="16.09" stroke-width="0px" fill="#cde9f8"/>
<defs/></svg>