<svg viewBox="1.613684401046719 0.8165644235802557 6.749923775110057 1.8987582379637276" xmlns:xlink="http://www.w3.org/1999/xlink" version="1.1" xmlns="http://www.w3.org/2000/svg" style="max-height: 500px" width="6.749923775110057" height="1.8987582379637276"><g transform="matrix(0.7590424570395431,0,0,0.7590424570395431,1.6074171355293463,1.3186655791035249)"><g clip-path="url(#SvgjsClipPath13924)"><g clip-path="url(#SvgjsClipPath1392297daa99f-0ce3-4877-a134-e8f4eaf77d23)"><path fill-rule="nonzero" transform="matrix(1,0,0,1,0,0)" fill="#e61a55" d="M 8.50095477659131 -0.34995555396468037 C 8.51019197311366 -0.3464460814508128 8.520190658955057 -0.3445258040375645 8.53061975180287 -0.3445258040375645 C 8.576938167339671 -0.3445258040375645 8.614449793360539 -0.3820705382896954 8.614449793360539 -0.4283558455952324 C 8.614449793360539 -0.4354078988542304 8.613588979347703 -0.4422613027256511 8.611900459553297 -0.4488167325157058 L 8.50095477659131 -0.34995555396468037 Z"/></g><g clip-path="url(#SvgjsClipPath1392297daa99f-0ce3-4877-a134-e8f4eaf77d23)"><path fill-rule="nonzero" transform="matrix(1,0,0,1,0,0)" fill="#e94b30" d="M 8.542638039751305 -0.5113250731400647 L 8.446789710245204 -0.4266673258008244 C 8.447484983101724 -0.3915394924308853 8.469766822741658 -0.3617420842942735 8.500888560128786 -0.34995555396468037 L 8.500921668360048 -0.34995555396468037 L 8.611867351322033 -0.4488167325157058 C 8.603722726431359 -0.4814283403096643 8.576441543870727 -0.5064581631444182 8.542638039751305 -0.5113250731400647 Z"/></g><g clip-path="url(#SvgjsClipPath1392297daa99f-0ce3-4877-a134-e8f4eaf77d23)"><path fill-rule="nonzero" transform="matrix(1,0,0,1,0,0)" fill="#11283e" d="M 8.727679944279664 -0.4283558455952324 C 8.727679944279664 -0.5372157099876541 8.639446507964031 -0.625449146303288 8.530586643571608 -0.625449146303288 C 8.433612634202568 -0.625449146303288 8.352994091077402 -0.5554252371822502 8.336572408371003 -0.46315259665254227 C 8.334552806263966 -0.4518626897918927 8.333493342863553 -0.4402417006186142 8.333493342863553 -0.4283558455952324 C 8.333493342863553 -0.3385001059477164 8.393617890836984 -0.2626822563556708 8.475825629062768 -0.23897676277143293 L 8.475858737294033 -0.23897676277143293 C 8.493240558707056 -0.23394431161947188 8.511582518826703 -0.23126254488717685 8.530586643571608 -0.23126254488717685 C 8.560582701095797 -0.23126254488717685 8.588989563519368 -0.23795040760228298 8.614416685129276 -0.2499355873194536 L 8.614416685129276 0.9607662135023465 C 8.614416685129276 1.015328578623609 8.570217196393303 1.0595280673595833 8.51565483127204 1.0595280673595833 L 7.001847173238372 1.0595280673595833 C 6.945496963628912 1.0595280673595833 6.899840712717371 1.0138718164480418 6.899840712717371 0.9575547150698454 L 6.899840712717371 -0.27675325464240397 C 6.899840712717371 -0.3493596058019482 6.958674039671547 -0.4082260409873879 7.031280390831092 -0.4082260409873879 L 8.220362516638216 -0.4082260409873879 C 8.249861950693463 -0.4082260409873879 8.273766093665277 -0.4321301839592031 8.273766093665277 -0.4615965097831859 C 8.273766093665277 -0.4621262414833923 8.273766093665277 -0.46265597318359875 8.273766093665277 -0.46315259665254227 C 8.272938387883706 -0.4919236496200041 8.249365327224519 -0.5150000868102468 8.220395624869479 -0.5150000868102468 L 6.996814722086411 -0.5150000868102468 C 6.976519376322251 -0.5118216966090081 6.896728538978658 -0.49682366784691356 6.840146571750358 -0.42484637308136475 C 6.804522114911475 -0.37952120448245186 6.794457212607553 -0.33247440785786814 6.79111328125 -0.3087358060423675 L 6.79111328125 0.9448742624961539 C 6.79111328125 1.0704537836763408 6.892921092383424 1.1722615948097648 7.018500613563611 1.1722615948097648 L 7.489332770353341 1.1722615948097648 C 7.477678672948799 1.2161962176956356 7.466057683775521 1.2601639488127696 7.454403586370979 1.3041316799299036 C 7.418183181369364 1.301317480272557 7.388849288470433 1.3283669052143479 7.387889149763809 1.3582305298134858 C 7.387160768676026 1.3816049410850941 7.403946641926317 1.4047475947378625 7.429605521155066 1.4134550595600062 L 8.092332986344575 1.4134550595600062 C 8.117064835097963 1.4035225901811352 8.13335408487931 1.381406291697517 8.13289056964163 1.3593562096764238 C 8.132294621478898 1.3290621780708687 8.10014652892262 1.2997282851719376 8.05965516208809 1.3041316799299036 L 8.028069909463282 1.1722615948097648 L 8.518369706235598 1.1722615948097648 C 8.534758280710735 1.1715994301845067 8.60544435445703 1.1668980613451747 8.663747949711 1.1091241977914104 C 8.718806938301206 1.0545949409014108 8.726289398566623 0.9889413183070763 8.727713052510927 0.9716257133565784 L 8.727713052510927 -0.4082260409873879 L 8.726686697341778 -0.4082260409873879 C 8.727381970198298 -0.4148476872399683 8.727713052510927 -0.4215686581863374 8.727713052510927 -0.4283558455952324 Z M 8.530586643571608 -0.34452580403756444 C 8.520157550723795 -0.34452580403756444 8.510158864882397 -0.3464460814508128 8.500921668360048 -0.34995555396468025 L 8.500888560128786 -0.34995555396468025 C 8.469766822741658 -0.3617420842942734 8.447484983101724 -0.39153949243088526 8.446789710245204 -0.4266673258008241 C 8.44675660201394 -0.42723016573229344 8.44675660201394 -0.4277930056637628 8.44675660201394 -0.4283558455952321 C 8.44675660201394 -0.47464115290076914 8.484301336266071 -0.5121858871529 8.530586643571608 -0.5121858871529 C 8.534692064248208 -0.5121858871529 8.53869816023102 -0.5118879130715339 8.542638039751305 -0.5113250731400646 C 8.576441543870727 -0.5064581631444179 8.603722726431359 -0.48142834030966397 8.611867351322033 -0.44881673251570564 C 8.613555871116441 -0.442261302725651 8.614416685129276 -0.43540789885423026 8.614416685129276 -0.4283558455952321 C 8.614416685129276 -0.38207053828969517 8.576905059108409 -0.34452580403756433 8.530586643571608 -0.34452580403756433 Z"/></g><g clip-path="url(#SvgjsClipPath1392297daa99f-0ce3-4877-a134-e8f4eaf77d23)"><path fill-rule="nonzero" transform="matrix(1,0,0,1,0,0)" fill="#11283e" d="M 8.004960364041775 0.6357427071944377 C 7.918117473439184 0.6357427071944377 7.847729373774254 0.7061639150906303 7.847729373774254 0.7929736974619594 C 7.847729373774254 0.8488603918337381 7.876864617285608 0.897926790565359 7.92079924017148 0.9258039212887224 L 7.92331546574746 0.923221479250216 L 7.932916852813701 0.9327566498539315 C 7.95447031136585 0.9439141237895297 7.978970402500398 0.950204687729481 8.004960364041775 0.950204687729481 C 8.091770146413104 0.950204687729481 8.162191354309298 0.8798165880645514 8.162191354309298 0.7929736974619594 C 8.162191354309298 0.7761216077491422 8.159542695808266 0.7598985744303202 8.154609569350093 0.744701896280648 C 8.15229199316169 0.7374511936340722 8.149444685273082 0.7304322486063377 8.14613386214679 0.7237112776599681 C 8.120508091149304 0.6715989216521603 8.066905864734666 0.6357427071944375 8.004960364041777 0.6357427071944375 Z M 8.004960364041775 0.8544225746859058 C 7.971024426997301 0.8544225746859058 7.9435114868178305 0.8269096345064342 7.9435114868178305 0.7929736974619597 C 7.9435114868178305 0.7590377604174852 7.971024426997301 0.7315579284692768 8.004960364041775 0.7315579284692768 C 8.03889630108625 0.7315579284692768 8.06637613303446 0.7590708686487482 8.06637613303446 0.7929736974619597 C 8.06637613303446 0.8268765262751716 8.038863192854988 0.8544225746859058 8.004960364041775 0.8544225746859058 Z"/></g><g clip-path="url(#SvgjsClipPath1392297daa99f-0ce3-4877-a134-e8f4eaf77d23)"><path fill-rule="nonzero" transform="matrix(1,0,0,1,0,0)" fill="#ffffff" d="M 8.004960364041775 0.7315579284692764 C 7.971024426997301 0.7315579284692764 7.9435114868178305 0.759070868648748 7.9435114868178305 0.7929736974619594 C 7.9435114868178305 0.8268765262751712 7.971024426997301 0.8544225746859053 8.004960364041775 0.8544225746859053 C 8.03889630108625 0.8544225746859053 8.06637613303446 0.826909634506434 8.06637613303446 0.7929736974619594 C 8.06637613303446 0.7590377604174847 8.038863192854988 0.7315579284692764 8.004960364041775 0.7315579284692764 Z"/></g><g clip-path="url(#SvgjsClipPath1392297daa99f-0ce3-4877-a134-e8f4eaf77d23)"><path fill-rule="nonzero" transform="matrix(1,0,0,1,0,0)" fill="#11283e" d="M 7.3610383742095955 0.7502640791328157 L 7.3610383742095955 0.7502640791328157 C 7.357230927614362 0.7638715621818688 7.355178217276062 0.7781743180874421 7.355178217276062 0.7929736974619594 C 7.355178217276062 0.854985414617375 7.391067539965047 0.9085876410320131 7.443179895972856 0.9341803037982364 C 7.464071189899746 0.9444438554897359 7.487578034096407 0.950204687729481 7.512409207543583 0.950204687729481 C 7.5992520981461755 0.950204687729481 7.669640197811105 0.8798165880645514 7.669640197811105 0.7929736974619594 C 7.669640197811105 0.7061308068593675 7.5992520981461755 0.6357427071944377 7.512409207543583 0.6357427071944377 C 7.48579018960821 0.6357427071944377 7.46069415031093 0.6423643534470183 7.438710284752363 0.6540515590828224 L 7.4386771765211 0.6540515590828224 C 7.401198658731496 0.6740158225343522 7.372791796307926 0.708613924204085 7.3610383742095955 0.7502640791328155 Z M 7.512409207543583 0.7315579284692764 C 7.546345144588058 0.7315579284692764 7.573824976536266 0.759070868648748 7.573824976536266 0.7929736974619594 C 7.573824976536266 0.8268765262751712 7.546345144588058 0.8544225746859053 7.512409207543583 0.8544225746859053 C 7.478473270499109 0.8544225746859053 7.4509934385509 0.826909634506434 7.4509934385509 0.7929736974619594 C 7.4509934385509 0.7590377604174847 7.478473270499109 0.7315579284692764 7.512409207543583 0.7315579284692764 Z"/></g><g clip-path="url(#SvgjsClipPath1392297daa99f-0ce3-4877-a134-e8f4eaf77d23)"><path fill-rule="nonzero" transform="matrix(1,0,0,1,0,0)" fill="#ffffff" d="M 7.512409207543583 0.8544225746859058 C 7.546345144588058 0.8544225746859058 7.573824976536266 0.8269096345064342 7.573824976536266 0.7929736974619597 C 7.573824976536266 0.7590377604174852 7.546345144588058 0.7315579284692768 7.512409207543583 0.7315579284692768 C 7.478473270499109 0.7315579284692768 7.4509934385509 0.7590708686487482 7.4509934385509 0.7929736974619597 C 7.4509934385509 0.8268765262751716 7.478473270499109 0.8544225746859058 7.512409207543583 0.8544225746859058 Z"/></g><g clip-path="url(#SvgjsClipPath1392297daa99f-0ce3-4877-a134-e8f4eaf77d23)"><path fill-rule="nonzero" transform="matrix(1,0,0,1,0,0)" fill="#3377bc" d="M 8.614416685129276 -0.24993558731945342 C 8.588989563519368 -0.23795040760228298 8.560582701095797 -0.23126254488717662 8.530586643571608 -0.23126254488717662 C 8.511582518826703 -0.23126254488717662 8.493240558707054 -0.2339443116194717 8.47585873729403 -0.23897676277143293 L 8.614416685129276 -0.11389386506018906 L 8.614416685129276 -0.24993558731945342 Z"/></g><g clip-path="url(#SvgjsClipPath1392297daa99f-0ce3-4877-a134-e8f4eaf77d23)"><path fill-rule="nonzero" transform="matrix(1,0,0,1,0,0)" fill="#ee771b" d="M 8.530586643571608 -0.5121858871529001 C 8.484301336266071 -0.5121858871529001 8.44675660201394 -0.4746411529007693 8.44675660201394 -0.4283558455952324 C 8.44675660201394 -0.4277930056637631 8.44675660201394 -0.42723016573229367 8.446789710245204 -0.4266673258008244 L 8.542638039751305 -0.5113250731400647 C 8.53869816023102 -0.511887913071534 8.534692064248208 -0.5121858871529001 8.530586643571608 -0.5121858871529001 Z"/></g><g clip-path="url(#SvgjsClipPath1392297daa99f-0ce3-4877-a134-e8f4eaf77d23)"><path fill-rule="nonzero" transform="matrix(1,0,0,1,0,0)" fill="#11283e" d="M 7.323626072882516 -0.12614391062746283 L 7.311144269696402 -0.19673065967996983 C 7.308628044120422 -0.21093409089175497 7.301840856711527 -0.22348211054039463 7.292272577876548 -0.23314971406916213 L 7.288001616043633 -0.23708959358944748 C 7.275917111632674 -0.24738625351220994 7.260290026476585 -0.25351127629584685 7.243404828532505 -0.25351127629584685 L 7.092000886967253 -0.25351127629584685 C 7.076274477117375 -0.25351127629584685 7.06207104590559 -0.24715449589336974 7.051774385982828 -0.2368578359706071 C 7.041444617828802 -0.2265611760478446 7.035087837426325 -0.2123246366047966 7.035087837426325 -0.19659822675491812 C 7.035087837426325 -0.1651785152864242 7.0605811754987595 -0.1396851772139897 7.092000886967253 -0.1396851772139897 L 7.208674293937721 -0.1396851772139897 L 7.244000776695237 0.04462834622658585 L 7.245093348326912 0.045820242552050305 L 7.244364967239129 0.04654862363983414 L 7.339882214432601 0.5451585864591382 C 7.345411289053505 0.573995855889126 7.365309336042509 0.5970060766168428 7.391299297583887 0.6073027365396053 L 7.391332405815151 0.6073027365396053 C 7.400933792881392 0.6111432913661019 7.411329777497944 0.6132291099356646 7.422189277352175 0.6132291099356646 L 8.098126926815583 0.6132291099356646 C 8.13302300256668 0.6132291099356646 8.163383250634762 0.5892256422700606 8.171428550831648 0.5552897052255861 L 8.289724261133996 0.057805422269220585 L 8.312370291317821 -0.03738074261162261 C 8.317899365938725 -0.060589612726916875 8.311575693767512 -0.08336807583579342 8.297769561330881 -0.09998840792977026 L 8.297769561330881 -0.09998840792977026 C 8.294226980585751 -0.10429247799394759 8.29022088460294 -0.1081661410517073 8.285751273382449 -0.11154318064052304 C 8.285751273382449 -0.11157628887178594 8.285718165151184 -0.11157628887178594 8.285685056919922 -0.11160939710304885 C 8.273732985434014 -0.12068105246908412 8.258768064903183 -0.12614391062746283 8.242280165734257 -0.12614391062746283 L 7.323659181113779 -0.12614391062746283 Z M 8.188081991156887 -0.02360771840625553 L 8.126004057538946 0.2626460490927951 L 8.08554579893568 0.4492109322592479 L 7.43182377264968 0.4492109322592479 L 7.396066882885746 0.2543358830458067 L 7.345047098509614 -0.02360771840625553 L 8.188081991156887 -0.02360771840625553 Z"/></g><g clip-path="url(#SvgjsClipPath1392297daa99f-0ce3-4877-a134-e8f4eaf77d23)"><path fill-rule="nonzero" transform="matrix(1,0,0,1,0,0)" fill="#ffffff" d="M 7.396066882885746 0.2543358830458067 L 7.450000191613013 0.35084637717716605 C 7.459700903373044 0.3681288738964008 7.477811105873851 0.37898837375063277 7.497642936400329 0.3793194560632618 L 7.980029865900811 0.3873316480288842 C 7.997345470851309 0.38762962211025 8.013998911176548 0.38064378531377807 8.02588476619993 0.36809576566513813 L 8.126004057538946 0.2626460490927951 L 8.188081991156887 -0.02360771840625553 L 7.345047098509614 -0.02360771840625553 L 7.396066882885746 0.2543358830458067 Z M 7.985227858209087 0.08233862163503092 C 7.990756932829991 0.06389733682159449 8.0079732130867 0.05141553363548057 8.02691112136908 0.051912157104424095 C 8.04505443210115 0.05240878057336751 8.061078816032396 0.06469193437190424 8.06637613303446 0.08233862163503092 C 8.051709186584993 0.17063827441319046 8.037075348366791 0.2589379271913502 8.022408401917325 0.347204471738247 C 8.011979309069512 0.36849306444029273 7.988273815485274 0.3773329621874879 7.9705609117596214 0.369751177228283 C 7.95764870156709 0.36425521083864143 7.948941236744947 0.35048218663327413 7.948014206269585 0.33482199324592155 C 7.960429792993174 0.2506608693756246 7.972812271485498 0.16649974550532765 7.985227858209087 0.08233862163503092 Z M 7.807138682245936 0.09194000870127261 C 7.807138682245936 0.07293588395636685 7.822534009783186 0.057573664650380385 7.841505026296829 0.057573664650380385 L 7.847166533842785 0.057573664650380385 C 7.866137550356428 0.057573664650380385 7.881532877893678 0.07293588395636685 7.881532877893678 0.09194000870127261 L 7.881532877893678 0.338033491678423 C 7.881532877893678 0.35703761642332876 7.866137550356428 0.37243294396057824 7.847166533842785 0.37243294396057824 L 7.841505026296829 0.37243294396057824 C 7.822534009783186 0.37243294396057824 7.807138682245936 0.35703761642332876 7.807138682245936 0.338033491678423 L 7.807138682245936 0.09194000870127261 Z M 7.638088053417559 0.09194000870127261 C 7.638088053417559 0.07293588395636685 7.653483380954809 0.057573664650380385 7.672454397468451 0.057573664650380385 L 7.678082796783144 0.057573664650380385 C 7.697086921528051 0.057573664650380385 7.7124822490652996 0.07293588395636685 7.7124822490652996 0.09194000870127261 L 7.7124822490652996 0.338033491678423 C 7.7124822490652996 0.35703761642332876 7.697086921528051 0.37243294396057824 7.678082796783144 0.37243294396057824 L 7.672454397468451 0.37243294396057824 C 7.653483380954809 0.37243294396057824 7.638088053417559 0.35703761642332876 7.638088053417559 0.338033491678423 L 7.638088053417559 0.09194000870127261 Z M 7.492676701710893 0.051912157104424095 C 7.5116146099932735 0.05141553363548057 7.528830890249982 0.06389733682159449 7.53439307310215 0.08233862163503092 C 7.546775551594475 0.16649974550532798 7.559191138318064 0.2506608693756246 7.571573616810389 0.33482199324592155 C 7.570679694566291 0.35048218663327413 7.561939121512885 0.36425521083864143 7.549026911320353 0.369751177228283 C 7.5313140075947 0.3773329621874879 7.507641622241725 0.36849306444029273 7.497179421162649 0.347204471738247 C 7.482545582944446 0.2589379271913499 7.46787863649498 0.17063827441319046 7.453244798276778 0.08233862163503092 C 7.458542115278842 0.06469193437190424 7.474533390978824 0.05240878057336751 7.492676701710894 0.051912157104424095 Z"/></g><g clip-path="url(#SvgjsClipPath1392297daa99f-0ce3-4877-a134-e8f4eaf77d23)"><path fill-rule="nonzero" transform="matrix(1,0,0,1,0,0)" fill="#11283e" d="M 7.549026911320353 0.369751177228283 C 7.561939121512884 0.36425521083864143 7.570679694566291 0.35048218663327413 7.571573616810389 0.33482199324592155 C 7.559191138318064 0.2506608693756246 7.546775551594475 0.16649974550532765 7.53439307310215 0.08233862163503092 C 7.528830890249982 0.06389733682159449 7.5116146099932735 0.05141553363548057 7.492676701710893 0.051912157104424095 C 7.474533390978824 0.05240878057336751 7.458542115278841 0.06469193437190424 7.453244798276777 0.08233862163503092 C 7.46787863649498 0.17063827441319046 7.482545582944446 0.2589379271913502 7.497179421162648 0.347204471738247 C 7.507641622241725 0.36849306444029273 7.5313140075947 0.3773329621874879 7.549026911320353 0.369751177228283 Z"/></g><g clip-path="url(#SvgjsClipPath1392297daa99f-0ce3-4877-a134-e8f4eaf77d23)"><path fill-rule="nonzero" transform="matrix(1,0,0,1,0,0)" fill="#11283e" d="M 7.672454397468451 0.37243294396057824 L 7.678082796783144 0.37243294396057824 C 7.697086921528051 0.37243294396057824 7.7124822490652996 0.35703761642332876 7.7124822490652996 0.338033491678423 L 7.7124822490652996 0.09194000870127261 C 7.7124822490652996 0.07293588395636685 7.697086921528051 0.057573664650380385 7.678082796783144 0.057573664650380385 L 7.672454397468451 0.057573664650380385 C 7.653483380954809 0.057573664650380385 7.638088053417559 0.07293588395636685 7.638088053417559 0.09194000870127261 L 7.638088053417559 0.338033491678423 C 7.638088053417559 0.35703761642332876 7.653483380954809 0.37243294396057824 7.672454397468451 0.37243294396057824 Z"/></g><g clip-path="url(#SvgjsClipPath1392297daa99f-0ce3-4877-a134-e8f4eaf77d23)"><path fill-rule="nonzero" transform="matrix(1,0,0,1,0,0)" fill="#11283e" d="M 7.841505026296829 0.37243294396057824 L 7.847166533842785 0.37243294396057824 C 7.866137550356428 0.37243294396057824 7.881532877893678 0.35703761642332876 7.881532877893678 0.338033491678423 L 7.881532877893678 0.09194000870127261 C 7.881532877893678 0.07293588395636685 7.866137550356428 0.057573664650380385 7.847166533842785 0.057573664650380385 L 7.841505026296829 0.057573664650380385 C 7.822534009783186 0.057573664650380385 7.807138682245936 0.07293588395636685 7.807138682245936 0.09194000870127261 L 7.807138682245936 0.338033491678423 C 7.807138682245936 0.35703761642332876 7.822534009783186 0.37243294396057824 7.841505026296829 0.37243294396057824 Z"/></g><g clip-path="url(#SvgjsClipPath1392297daa99f-0ce3-4877-a134-e8f4eaf77d23)"><path fill-rule="nonzero" transform="matrix(1,0,0,1,0,0)" fill="#11283e" d="M 7.970594019990884 0.369751177228283 C 7.988306923716537 0.3773329621874879 8.012012417300774 0.36849306444029273 8.022441510148589 0.347204471738247 C 8.037108456598054 0.2589379271913499 8.051742294816258 0.17063827441319046 8.066409241265722 0.08233862163503092 C 8.061111924263658 0.06469193437190424 8.045087540332412 0.05240878057336751 8.026944229600343 0.051912157104424095 C 8.008006321317962 0.05141553363548057 7.9907900410612545 0.06389733682159449 7.985260966440349 0.08233862163503092 C 7.972845379716761 0.16649974550532798 7.960462901224435 0.2506608693756246 7.9480473145008474 0.33482199324592155 C 7.948974344976208 0.35048218663327413 7.957681809798352 0.36425521083864143 7.970594019990884 0.369751177228283 Z"/></g><g clip-path="url(#SvgjsClipPath1392297daa99f-0ce3-4877-a134-e8f4eaf77d23)"><path fill-rule="nonzero" transform="matrix(1,0,0,1,0,0)" fill="#d3ecf8" d="M 7.980029865900811 0.3873316480288842 L 7.497642936400329 0.3793194560632618 C 7.477811105873851 0.37898837375063277 7.459700903373044 0.3681288738964008 7.450000191613013 0.35084637717716605 L 7.396066882885746 0.2543358830458067 L 7.43182377264968 0.4492109322592479 L 8.08554579893568 0.4492109322592479 L 8.126004057538946 0.2626460490927951 L 8.02588476619993 0.36809576566513813 C 8.013998911176548 0.38064378531377807 7.997345470851309 0.38762962211025 7.980029865900811 0.3873316480288842 Z"/></g><g clip-path="url(#SvgjsClipPath1392297daa99f-0ce3-4877-a134-e8f4eaf77d23)"><path fill-rule="nonzero" transform="matrix(1,0,0,1,0,0)" fill="#5ebeb2" d="M 8.220362516638216 -0.4082260409873879 L 7.759396612764832 -0.4082260409873879 L 7.759396612764832 -0.12614391062746283 L 8.242247057502995 -0.12614391062746283 C 8.25873495667192 -0.12614391062746283 8.273699877202752 -0.12068105246908412 8.28565194868866 -0.11160939710304885 C 8.285685056919922 -0.11157628887178594 8.285718165151184 -0.11157628887178594 8.285718165151184 -0.11154318064052304 C 8.290187776371678 -0.1081661410517073 8.294193872354487 -0.10429247799394759 8.297736453099619 -0.10002151616103316 L 8.297736453099619 -0.10002151616103316 C 8.297736453099619 -0.10002151616103316 8.614383576898014 0.20358096451977814 8.614383576898014 0.20358096451977814 L 8.614383576898014 -0.11389386506018906 L 8.475825629062768 -0.23897676277143293 L 8.475792520831506 -0.23897676277143293 C 8.39358478260572 -0.2626822563556708 8.33346023463229 -0.3385001059477163 8.33346023463229 -0.4283558455952324 C 8.33346023463229 -0.4402417006186142 8.334519698032702 -0.4518626897918927 8.336539300139739 -0.46315259665254227 L 8.273699877202752 -0.46315259665254227 C 8.273699877202752 -0.46265597318359875 8.273699877202752 -0.4621262414833923 8.273699877202752 -0.4615965097831859 C 8.273699877202752 -0.4321301839592031 8.249795734230936 -0.4082260409873879 8.22029630017569 -0.4082260409873879 Z"/></g><g clip-path="url(#SvgjsClipPath1392297daa99f-0ce3-4877-a134-e8f4eaf77d23)"><path fill-rule="nonzero" transform="matrix(1,0,0,1,0,0)" fill="#e51743" d="M 7.323626072882516 -0.12614391062746283 L 7.4079527379091274 -0.12614391062746283 L 7.292272577876548 -0.23314971406916213 C 7.301840856711527 -0.22348211054039463 7.308628044120422 -0.21093409089175497 7.311144269696402 -0.19673065967996983 L 7.323626072882516 -0.12614391062746283 Z"/></g><g clip-path="url(#SvgjsClipPath1392297daa99f-0ce3-4877-a134-e8f4eaf77d23)"><path fill-rule="nonzero" transform="matrix(1,0,0,1,0,0)" fill="#ec681c" d="M 7.355211325507325 0.7929736974619594 C 7.355211325507325 0.7781743180874421 7.357264035845625 0.7638715621818688 7.361071482440858 0.7502971873640787 L 7.046708826599604 1.0595280673595833 L 7.562071554437936 1.0595280673595833 L 7.443213004204118 0.9341803037982364 C 7.391100648196311 0.9085876410320131 7.355211325507325 0.854985414617375 7.355211325507325 0.7929736974619594 Z"/></g><g clip-path="url(#SvgjsClipPath1392297daa99f-0ce3-4877-a134-e8f4eaf77d23)"><path fill-rule="nonzero" transform="matrix(1,0,0,1,0,0)" fill="#44c0ec" d="M 8.479765508583053 1.0595280673595833 L 8.51565483127204 1.0595280673595833 C 8.570217196393303 1.0595280673595833 8.614416685129276 1.015328578623609 8.614416685129276 0.9607662135023465 L 8.614416685129276 0.598098648248518 L 8.314423001656122 0.8994166609721892 L 8.479765508583053 1.0595280673595833 Z"/></g><g clip-path="url(#SvgjsClipPath1392297daa99f-0ce3-4877-a134-e8f4eaf77d23)"><path fill-rule="nonzero" transform="matrix(1,0,0,1,0,0)" fill="#34aee5" d="M 8.15503997635651 1.0595280673595833 L 8.479765508583053 1.0595280673595833 L 8.31442300165612 0.8994166609721892 L 8.15503997635651 1.0595280673595833 Z"/></g><g clip-path="url(#SvgjsClipPath1392297daa99f-0ce3-4877-a134-e8f4eaf77d23)"><path fill-rule="nonzero" transform="matrix(1,0,0,1,0,0)" fill="#3377bc" d="M 8.154609569350093 0.7447018962806486 C 8.159542695808266 0.7598985744303204 8.162191354309298 0.7761216077491426 8.162191354309298 0.7929736974619597 C 8.162191354309298 0.8798165880645519 8.091770146413104 0.9502046877294812 8.004960364041775 0.9502046877294812 C 7.978970402500398 0.9502046877294812 7.95447031136585 0.9439141237895301 7.932916852813701 0.9327566498539321 L 8.060615300794714 1.0595280673595837 L 8.15503997635651 1.0595280673595837 L 8.31442300165612 0.8994166609721896 L 8.154609569350093 0.7447018962806486 Z"/></g><g clip-path="url(#SvgjsClipPath1392297daa99f-0ce3-4877-a134-e8f4eaf77d23)"><path fill-rule="nonzero" transform="matrix(1,0,0,1,0,0)" fill="#44c0ec" d="M 7.92079924017148 0.9258039212887224 L 7.78846563981366 1.0595280673595833 L 8.060615300794714 1.0595280673595833 L 7.932916852813701 0.9327566498539315 C 7.928745215674576 0.9306046148218432 7.9247060114605015 0.9282870386334399 7.92079924017148 0.9258039212887224 Z"/></g><g clip-path="url(#SvgjsClipPath1392297daa99f-0ce3-4877-a134-e8f4eaf77d23)"><path fill-rule="nonzero" transform="matrix(1,0,0,1,0,0)" fill="#34aee5" d="M 8.14613386214679 0.7237112776599683 C 8.14944468527308 0.7304322486063377 8.15229199316169 0.7374511936340729 8.154609569350093 0.7447018962806486 L 8.31442300165612 0.8994166609721896 L 8.614416685129276 0.5980986482485184 L 8.614416685129276 0.3749160613052962 L 8.552736050286489 0.3146590804068147 L 8.14613386214679 0.7237112776599688 Z"/></g><g clip-path="url(#SvgjsClipPath1392297daa99f-0ce3-4877-a134-e8f4eaf77d23)"><path fill-rule="nonzero" transform="matrix(1,0,0,1,0,0)" fill="#3bbacc" d="M 8.312370291317821 -0.03738074261162261 L 8.289724261133996 0.057805422269220585 L 8.552736050286489 0.31465908040681434 L 8.614416685129276 0.37491606130529576 L 8.614416685129276 0.20358096451977814 L 8.297769561330881 -0.09998840792977026 C 8.31157569376751 -0.08336807583579353 8.317899365938725 -0.060589612726916986 8.312370291317821 -0.03738074261162261 Z"/></g><g clip-path="url(#SvgjsClipPath1392297daa99f-0ce3-4877-a134-e8f4eaf77d23)"><path fill-rule="nonzero" transform="matrix(1,0,0,1,0,0)" fill="#3377bc" d="M 7.847729373774254 0.7929736974619594 C 7.847729373774254 0.7061639150906303 7.918117473439184 0.6357427071944377 8.004960364041775 0.6357427071944377 C 8.066905864734666 0.6357427071944377 8.120508091149304 0.6715989216521607 8.14613386214679 0.7237112776599683 L 8.552736050286489 0.31465908040681434 L 8.289724261133996 0.057805422269220585 L 8.171428550831648 0.5552897052255861 C 8.163383250634762 0.5892256422700606 8.13302300256668 0.6132291099356646 8.098126926815581 0.6132291099356646 L 7.7593966127648315 0.6132291099356646 L 7.7593966127648315 1.0595280673595837 L 7.788465639813659 1.0595280673595837 L 7.920799240171479 0.9258039212887226 C 7.876864617285608 0.8979267905653592 7.8477293737742535 0.8488603918337383 7.8477293737742535 0.7929736974619597 Z"/></g><g clip-path="url(#SvgjsClipPath1392297daa99f-0ce3-4877-a134-e8f4eaf77d23)"><path fill-rule="nonzero" transform="matrix(1,0,0,1,0,0)" fill="#e7401f" d="M 7.422189277352175 0.6132291099356646 C 7.411329777497944 0.6132291099356646 7.400933792881392 0.6111432913661019 7.391332405815151 0.6073027365396053 L 7.4386771765211 0.6540515590828224 L 7.438710284752363 0.6540515590828224 C 7.46069415031093 0.6423643534470183 7.48579018960821 0.6357427071944377 7.512409207543583 0.6357427071944377 C 7.599252098146175 0.6357427071944377 7.669640197811105 0.7061639150906303 7.669640197811105 0.7929736974619594 C 7.669640197811105 0.8797834798332884 7.599252098146175 0.950204687729481 7.512409207543583 0.950204687729481 C 7.487578034096407 0.950204687729481 7.464071189899746 0.9444438554897359 7.443179895972855 0.9341803037982364 L 7.562038446206673 1.0595280673595833 L 7.7593966127648315 1.0595280673595833 L 7.7593966127648315 0.6132291099356642 L 7.422189277352175 0.6132291099356642 Z"/></g><g clip-path="url(#SvgjsClipPath1392297daa99f-0ce3-4877-a134-e8f4eaf77d23)"><path fill-rule="nonzero" transform="matrix(1,0,0,1,0,0)" fill="#ee771b" d="M 7.3610383742095955 0.7502640791328157 C 7.372791796307926 0.708613924204085 7.401198658731495 0.6740158225343529 7.4386771765211 0.6540515590828229 L 7.391332405815151 0.6073027365396053 L 7.391299297583887 0.6073027365396053 C 7.365309336042509 0.5970060766168428 7.345411289053505 0.573995855889126 7.339882214432601 0.5451585864591382 L 7.244364967239129 0.04654862363983403 L 6.899840712717371 0.3891857089796069 L 6.899840712717371 0.9575547150698454 C 6.899840712717371 1.0138718164480418 6.945496963628912 1.0595280673595833 7.001847173238372 1.0595280673595833 L 7.046675718368341 1.0595280673595833 L 7.3610383742095955 0.7502971873640787 L 7.3610383742095955 0.7502971873640787 Z"/></g><g clip-path="url(#SvgjsClipPath1392297daa99f-0ce3-4877-a134-e8f4eaf77d23)"><path fill-rule="nonzero" transform="matrix(1,0,0,1,0,0)" fill="#eb621c" d="M 7.244000776695237 0.044628346226585625 L 7.208674293937721 -0.13968517721398988 L 7.092000886967253 -0.13968517721398988 C 7.0605811754987595 -0.13968517721398988 7.035087837426325 -0.16517851528642435 7.035087837426325 -0.19659822675491828 C 7.035087837426325 -0.21232463660479678 7.041444617828802 -0.22656117604784476 7.051774385982828 -0.23685783597060728 C 7.06207104590559 -0.2471544958933699 7.076274477117375 -0.253511276295847 7.092000886967253 -0.253511276295847 L 7.243404828532505 -0.253511276295847 C 7.260290026476585 -0.253511276295847 7.275917111632674 -0.2473862535122101 7.288001616043633 -0.23708959358944764 L 7.292272577876548 -0.2331497140691623 L 7.4079527379091274 -0.126143910627463 L 7.759396612764832 -0.126143910627463 L 7.759396612764832 -0.408226040987388 L 7.031280390831092 -0.408226040987388 C 6.958674039671547 -0.408226040987388 6.899840712717371 -0.34935960580194825 6.899840712717371 -0.27675325464240413 L 6.899840712717371 0.38918570897960647 L 7.244364967239129 0.046548623639833586 L 7.244000776695237 0.044628346226585514 Z"/></g><g clip-path="url(#SvgjsClipPath1392297daa99f-0ce3-4877-a134-e8f4eaf77d23)"><path fill-rule="nonzero" transform="matrix(1,0,0,1,0,0)" fill="#cde9f8" d="M 8.662622269848061 1.7118264397012783 C 8.662622269848061 1.7412472828674277 8.257419145930928 1.7650975838032879 7.757575660045372 1.7650975838032879 C 7.257732174159816 1.7650975838032879 6.852529050242683 1.7412472828674277 6.852529050242683 1.7118264397012783 C 6.852529050242683 1.682405596535129 7.257732174159816 1.6585552955992688 7.757575660045372 1.6585552955992688 C 8.257419145930928 1.6585552955992688 8.662622269848061 1.682405596535129 8.662622269848061 1.7118264397012783 Z"/></g></g><g><path fill-rule="nonzero" fill="#11283e" d="M 1.034912109375 0.029296875 L 1.530029296875 0.029296875 L 1.483154296875 0.230712890625 L 1.36962890625 0.230712890625 L 1.20556640625 0.93896484375 L 1.333740234375 0.93896484375 L 1.286865234375 1.1396484375 L 0.791748046875 1.1396484375 L 0.838623046875 0.93896484375 L 0.94921875 0.93896484375 L 1.01513671875 0.65478515625 L 0.52734375 0.65478515625 L 0.46142578125 0.93896484375 L 0.586669921875 0.93896484375 L 0.539794921875 1.1396484375 L 0.044677734375 1.1396484375 L 0.091552734375 0.93896484375 L 0.205078125 0.93896484375 L 0.369140625 0.230712890625 L 0.2431640625 0.230712890625 L 0.289306640625 0.029296875 L 0.784423828125 0.029296875 L 0.73828125 0.230712890625 L 0.626220703125 0.230712890625 L 0.573486328125 0.45703125 L 1.060546875 0.45703125 L 1.11328125 0.230712890625 L 0.98876953125 0.230712890625 L 1.034912109375 0.029296875 M 2.0009765625 1.081787109375 Q 1.9738769531250002 1.1103515625 1.9291992187500002 1.130126953125 Q 1.8815917968750002 1.1513671875 1.8171386718750002 1.1513671875 Q 1.7578125000000002 1.1513671875 1.7006835937500002 1.130126953125 Q 1.6435546875000002 1.10888671875 1.5992431640625002 1.0667724609375 Q 1.5549316406250002 1.024658203125 1.5274658203125002 0.96240234375 Q 1.5000000000000002 0.900146484375 1.5000000000000002 0.81884765625 Q 1.5000000000000002 0.74853515625 1.5183105468750002 0.6873779296875 Q 1.5366210937500002 0.626220703125 1.5688476562500002 0.5753173828125 Q 1.6010742187500002 0.5244140625 1.6453857421875002 0.48486328125 Q 1.6896972656250002 0.4453125 1.7420654296875002 0.418212890625 Q 1.7944335937500002 0.39111328125 1.8526611328125002 0.3768310546875 Q 1.9108886718750002 0.362548828125 1.9709472656250002 0.362548828125 Q 2.004638671875 0.362548828125 2.0284423828125 0.366943359375 Q 2.05224609375 0.371337890625 2.0830078125 0.380126953125 Q 2.11376953125 0.388916015625 2.15478515625 0.418212890625 L 2.16357421875 0.380859375 L 2.41259765625 0.380859375 L 2.282958984375 0.93896484375 L 2.4228515625 0.93896484375 L 2.3759765625 1.1396484375 L 1.9877929687500002 1.1396484375 L 2.0009765625 1.081787109375 M 2.028076171875 0.8671875 L 2.060302734375 0.826904296875 L 2.096923828125 0.668701171875 Q 2.088134765625 0.65185546875 2.07421875 0.6361083984375 Q 2.060302734375 0.620361328125 2.0394287109375 0.608642578125 Q 2.0185546875 0.596923828125 1.9940185546875002 0.5906982421875 Q 1.9694824218750002 0.58447265625 1.9445800781250002 0.58447265625 Q 1.9050292968750002 0.58447265625 1.8691406250000002 0.6002197265625 Q 1.8332519531250002 0.615966796875 1.8065185546875002 0.6427001953125 Q 1.7797851562500002 0.66943359375 1.7636718750000002 0.7060546875 Q 1.7475585937500002 0.74267578125 1.7475585937500002 0.784423828125 Q 1.7475585937500002 0.819580078125 1.7585449218750002 0.845947265625 Q 1.7695312500000002 0.872314453125 1.7885742187500002 0.889892578125 Q 1.8076171875000002 0.907470703125 1.8325195312500002 0.916259765625 Q 1.8574218750000002 0.925048828125 1.8859863281250002 0.925048828125 Q 1.9101562500000002 0.925048828125 1.9354248046875002 0.9188232421875 Q 1.9606933593750002 0.91259765625 1.9841308593750002 0.8997802734375 Q 2.007568359375 0.886962890625 2.028076171875 0.8671875 M 2.512939453125 0.380859375 L 2.887939453125 0.380859375 L 2.841796875 0.58154296875 L 2.792724609375 0.58154296875 L 2.810302734375 0.81298828125 L 3.059326171875 0.380859375 L 3.303955078125 0.380859375 L 3.3486328125 0.84228515625 L 3.498779296875 0.58154296875 L 3.431396484375 0.58154296875 L 3.4775390625 0.380859375 L 3.8525390625 0.380859375 L 3.806396484375 0.58154296875 L 3.736083984375 0.58154296875 L 3.39990234375 1.1396484375 L 3.15380859375 1.1396484375 L 3.10546875 0.68994140625 L 3.1025390625 0.68994140625 L 2.8388671875 1.1396484375 L 2.6015625 1.1396484375 L 2.54150390625 0.58154296875 L 2.466796875 0.58154296875 L 2.512939453125 0.380859375 M 3.939697265625 0 L 4.33447265625 0 L 4.1865234375 0.64013671875 L 4.27001953125 0.64013671875 L 4.386474609375 0.516357421875 L 4.41796875 0.380859375 L 4.752685546875 0.380859375 L 4.70654296875 0.58154296875 L 4.60400390625 0.58154296875 L 4.431884765625 0.744873046875 L 4.53076171875 0.93896484375 L 4.64501953125 0.93896484375 L 4.59814453125 1.1396484375 L 4.377685546875 1.1396484375 L 4.234130859375 0.84228515625 L 4.1396484375 0.84228515625 L 4.071533203125 1.1396484375 L 3.822509765625 1.1396484375 L 4.039306640625 0.20068359375 L 3.8935546875 0.20068359375 L 3.939697265625 0 M 5.0123291015625 0.8173828125 Q 5.0137939453125 0.8349609375 5.0181884765625 0.85107421875 Q 5.0255126953125 0.87890625 5.042724609375 0.8997802734375 Q 5.0599365234375 0.920654296875 5.0877685546875 0.9327392578125 Q 5.1156005859375 0.94482421875 5.1551513671875 0.94482421875 Q 5.1844482421875 0.94482421875 5.208984375 0.93896484375 Q 5.2335205078125 0.93310546875 5.2554931640625 0.9224853515625 Q 5.2774658203125 0.911865234375 5.297607421875 0.897216796875 Q 5.3177490234375 0.882568359375 5.3375244140625 0.864990234375 L 5.4986572265625 1.00634765625 Q 5.4246826171875 1.08544921875 5.3280029296875 1.1224365234375 Q 5.2313232421875 1.159423828125 5.1199951171875 1.159423828125 Q 5.0482177734375 1.159423828125 4.9852294921875 1.135986328125 Q 4.9222412109375 1.112548828125 4.8753662109375 1.0689697265625 Q 4.8284912109375 1.025390625 4.801025390625 0.963134765625 Q 4.7735595703125 0.90087890625 4.7735595703125 0.8232421875 Q 4.7735595703125 0.718505859375 4.811279296875 0.6328125 Q 4.8489990234375 0.547119140625 4.9127197265625 0.4859619140625 Q 4.9764404296875 0.4248046875 5.060302734375 0.3914794921875 Q 5.1441650390625 0.358154296875 5.2371826171875 0.358154296875 Q 5.3111572265625 0.358154296875 5.3734130859375 0.3841552734375 Q 5.4356689453125 0.41015625 5.480712890625 0.4537353515625 Q 5.5257568359375 0.497314453125 5.551025390625 0.554443359375 Q 5.5762939453125 0.611572265625 5.5762939453125 0.673095703125 Q 5.5762939453125 0.687744140625 5.5748291015625 0.7060546875 Q 5.5733642578125 0.724365234375 5.5704345703125 0.7437744140625 Q 5.5675048828125 0.76318359375 5.5631103515625 0.7822265625 Q 5.5587158203125 0.80126953125 5.5535888671875 0.8173828125 L 5.0123291015625 0.8173828125 M 5.0438232421875 0.6416015625 Q 5.0408935546875 0.646728515625 5.0386962890625 0.65185546875 L 5.3558349609375 0.65185546875 Q 5.3543701171875 0.632080078125 5.343017578125 0.6134033203125 Q 5.3316650390625 0.5947265625 5.31298828125 0.580078125 Q 5.2943115234375 0.5654296875 5.26904296875 0.5562744140625 Q 5.2437744140625 0.547119140625 5.2130126953125 0.547119140625 Q 5.1763916015625 0.547119140625 5.14306640625 0.55810546875 Q 5.1097412109375 0.569091796875 5.08447265625 0.5899658203125 Q 5.0592041015625 0.61083984375 5.0438232421875 0.6416015625 M 6.39697265625 0.676025390625 L 6.158203125 0.676025390625 L 6.176513671875 0.599853515625 Q 6.151611328125 0.599853515625 6.1307373046875 0.60498046875 Q 6.10986328125 0.610107421875 6.0904541015625 0.620361328125 Q 6.071044921875 0.630615234375 6.052734375 0.64599609375 Q 6.040283203125 0.65625 6.02783203125 0.668701171875 L 5.96484375 0.93896484375 L 6.123779296875 0.93896484375 L 6.07763671875 1.1396484375 L 5.668212890625 1.1396484375 L 5.797119140625 0.58154296875 L 5.6572265625 0.58154296875 L 5.7041015625 0.380859375 L 6.09228515625 0.380859375 L 6.07763671875 0.44677734375 Q 6.107666015625 0.419677734375 6.1494140625 0.4013671875 Q 6.195556640625 0.380859375 6.2578125 0.380859375 L 6.4658203125 0.380859375 L 6.39697265625 0.676025390625"/></g><g/></g><defs><clipPath id="SvgjsClipPath13924"><path d="M 6.79111328125 -0.6254491463032879 h 1.936599771260927 v 2.3905467301065757 h -1.936599771260927 Z"/></clipPath><clipPath id="SvgjsClipPath1392297daa99f-0ce3-4877-a134-e8f4eaf77d23"><path d="M 6.79111328125 -0.6254491463032879 L 8.727713052510927 -0.6254491463032879 L 8.727713052510927 1.7650975838032879 L 6.79111328125 1.7650975838032879 Z"/></clipPath></defs></svg>